<svg width="25" height="24" viewBox="0 0 25 24" fill="none" xmlns="http://www.w3.org/2000/svg">
<path fill-rule="evenodd" clip-rule="evenodd" d="M16.834 2.75H8.165C5.144 2.75 3.25 4.889 3.25 7.916V16.084C3.25 19.111 5.135 21.25 8.165 21.25H16.833C19.864 21.25 21.75 19.111 21.75 16.084V7.916C21.75 4.889 19.864 2.75 16.834 2.75Z" stroke="#313639" stroke-opacity="0.45" stroke-width="1.5" stroke-linecap="round" stroke-linejoin="round"/>
<path fill-rule="evenodd" clip-rule="evenodd" d="M11.1889 11.9999C11.1889 13.0229 10.3599 13.8519 9.33686 13.8519C8.31386 13.8519 7.48486 13.0229 7.48486 11.9999C7.48486 10.9769 8.31386 10.1479 9.33686 10.1479H9.33986C10.3609 10.1489 11.1889 10.9779 11.1889 11.9999Z" stroke="#313639" stroke-opacity="0.45" stroke-width="1.5" stroke-linecap="round" stroke-linejoin="round"/>
<path d="M11.1919 12H17.5099V13.852" stroke="#313639" stroke-opacity="0.45" stroke-width="1.5" stroke-linecap="round" stroke-linejoin="round"/>
<path d="M14.6816 13.852V12" stroke="#313639" stroke-opacity="0.45" stroke-width="1.5" stroke-linecap="round" stroke-linejoin="round"/>
</svg>
